<svg xmlns="http://www.w3.org/2000/svg" fill="none" viewBox="1154.414856 0 208.386 219.3625" style="max-height: 500px" width="208.386" height="219.3625">
  <path fill="#fff" d="M1163.5 108.608c0 73.193 47.03 109.392 102.44 109.392 52.61 0 87.69-29.436 94.86-71.204h-35.87c-6.78 24.265-25.91 38.983-58.2 38.983-34.28 0-63.37-19.889-66.56-65.635h160.63c.8-5.967 1.2-11.536 1.2-17.503 0-50.917-30.69-101.834-97.26-102.63-57.8-.795-101.24 40.575-101.24 108.597m37.46-18.696c5.19-40.973 30.3-57.68 62.98-57.68 30.3 0 56.61 16.31 60.99 57.68z"/>
</svg>